<svg xmlns="http://www.w3.org/2000/svg" xmlns:xlink="http://www.w3.org/1999/xlink" width="32" height="32" viewBox="0 0 32 32"><defs><clipPath id="a"><rect width="32" height="32" transform="translate(3771 1051)" fill="#660201" stroke="#707070" stroke-width="1"/></clipPath></defs><g transform="translate(-3771 -1051)" clip-path="url(#a)"><path d="M15.867,39.589a8.171,8.171,0,1,0,8.171,8.171A8.158,8.158,0,0,0,15.867,39.589Zm0,13.483a5.312,5.312,0,1,1,5.312-5.312,5.322,5.322,0,0,1-5.312,5.312ZM26.278,39.255a1.906,1.906,0,1,1-1.906-1.906A1.9,1.9,0,0,1,26.278,39.255Zm5.412,1.934a9.432,9.432,0,0,0-2.574-6.678,9.494,9.494,0,0,0-6.678-2.574c-2.631-.149-10.518-.149-13.149,0A9.48,9.48,0,0,0,2.611,34.5,9.462,9.462,0,0,0,.037,41.182c-.149,2.631-.149,10.518,0,13.149a9.432,9.432,0,0,0,2.574,6.678,9.506,9.506,0,0,0,6.678,2.574c2.631.149,10.518.149,13.149,0a9.432,9.432,0,0,0,6.678-2.574,9.494,9.494,0,0,0,2.574-6.678C31.839,51.7,31.839,43.82,31.69,41.189Zm-3.4,15.965a5.378,5.378,0,0,1-3.029,3.029c-2.1.832-7.076.64-9.394.64s-7.3.185-9.394-.64a5.378,5.378,0,0,1-3.029-3.029c-.832-2.1-.64-7.076-.64-9.394s-.185-7.3.64-9.394a5.378,5.378,0,0,1,3.029-3.029c2.1-.832,7.076-.64,9.394-.64s7.3-.185,9.394.64a5.378,5.378,0,0,1,3.029,3.029c.832,2.1.64,7.076.64,9.394S29.122,55.063,28.29,57.154Z" transform="translate(3771.075 1019.175)" fill="#660201"/></g></svg>