<svg xmlns="http://www.w3.org/2000/svg" xmlns:xlink="http://www.w3.org/1999/xlink" width="32" height="32" viewBox="0 0 32 32"><defs><clipPath id="a"><rect width="32" height="32" transform="translate(4036 1004)" fill="#660201" stroke="#707070" stroke-width="1"/></clipPath></defs><g transform="translate(-4036 -1004)" clip-path="url(#a)"><path d="M7.132,31.872H.526V10.6H7.132ZM3.826,7.7A3.844,3.844,0,1,1,7.651,3.836,3.858,3.858,0,0,1,3.826,7.7Zm28.03,24.174H25.264V21.516c0-2.468-.05-5.633-3.434-5.633-3.434,0-3.961,2.681-3.961,5.455V31.872h-6.6V10.6h6.335v2.9H17.7a6.941,6.941,0,0,1,6.25-3.435c6.685,0,7.914,4.4,7.914,10.121V31.872Z" transform="translate(4036 1003.99)" fill="#660201"/></g></svg>